<?xml version="1.0"?>
<svg width="512" height="512" xmlns="http://www.w3.org/2000/svg" xmlns:svg="http://www.w3.org/2000/svg">
 <!--! Font Awesome Pro 6.4.0 by @fontawesome - https://fontawesome.com License - https://fontawesome.com/license (Commercial License) Copyright 2023 Fonticons, Inc. -->
 <g class="layer">
  <title>Layer 1</title>
  <path d="m256,48a208,208 0 1 1 0,416a208,208 0 1 1 0,-416zm0,464a256,256 0 1 0 0,-512a256,256 0 1 0 0,512zm113,-303c9.4,-9.4 9.4,-24.6 0,-33.9s-24.6,-9.4 -33.9,0l-111,111l-47,-47c-9.4,-9.4 -24.6,-9.4 -33.9,0s-9.4,24.6 0,33.9l64,64c9.4,9.4 24.6,9.4 33.9,0l127.9,-128z" fill="#4a6e43" id="svg_1"/>
 </g>
</svg>