<?xml version="1.0"?>
<svg width="512" height="512" xmlns="http://www.w3.org/2000/svg" xmlns:svg="http://www.w3.org/2000/svg">
 <!--! Font Awesome Pro 6.3.0 by @fontawesome - https://fontawesome.com License - https://fontawesome.com/license (Commercial License) Copyright 2023 Fonticons, Inc. -->
 <g class="layer">
  <title>Layer 1</title>
  <path d="m152.1,38.2c9.9,8.9 10.7,24 1.8,33.9l-72,80c-4.4,4.9 -10.6,7.8 -17.2,7.9s-12.9,-2.4 -17.6,-7l-40.1,-40c-9.3,-9.4 -9.3,-24.6 0,-34s24.6,-9.4 33.9,0l22.1,22.1l55.1,-61.2c8.9,-9.9 24,-10.7 33.9,-1.8l0.1,0.1zm0,160c9.9,8.9 10.7,24 1.8,33.9l-72,80c-4.4,4.9 -10.6,7.8 -17.2,7.9s-12.9,-2.4 -17.6,-7l-40.1,-40c-9.4,-9.4 -9.4,-24.6 0,-33.9s24.6,-9.4 33.9,0l22.1,22.1l55.1,-61.2c8.9,-9.9 24,-10.7 33.9,-1.8l0.1,0zm71.9,-102.2c0,-17.7 14.3,-32 32,-32l224,0c17.7,0 32,14.3 32,32s-14.3,32 -32,32l-224,0c-17.7,0 -32,-14.3 -32,-32zm0,160c0,-17.7 14.3,-32 32,-32l224,0c17.7,0 32,14.3 32,32s-14.3,32 -32,32l-224,0c-17.7,0 -32,-14.3 -32,-32zm-64,160c0,-17.7 14.3,-32 32,-32l288,0c17.7,0 32,14.3 32,32s-14.3,32 -32,32l-288,0c-17.7,0 -32,-14.3 -32,-32zm-112,-48a48,48 0 1 1 0,96a48,48 0 1 1 0,-96z" fill="#ffffff" id="svg_1"/>
 </g>
</svg>